<svg width="23" height="25" viewBox="0 0 22 20" fill="none" xmlns="http://www.w3.org/2000/svg">
<path d="M18 14H8M2 14H4M4 14C4 13.3333 4.4 12 6 12C7.6 12 8 13.3333 8 14M4 14C4 14.6667 4.4 16 6 16C7.6 16 8 14.6667 8 14M12 6C12 5.33333 12.4 4 14 4C15.6 4 16 5.33333 16 6C16 6.66667 15.6 8 14 8C12.4 8 12 6.66667 12 6Z" stroke="black" stroke-width="1.5" stroke-linecap="round"/>
<path d="M2 6H12" stroke="black" stroke-width="1.5" stroke-linecap="round"/>
<path d="M16 6H18" stroke="black" stroke-width="1.5" stroke-linecap="round"/>
</svg>
