<svg width="24" height="24" viewBox="0 0 24 24" fill="none" xmlns="http://www.w3.org/2000/svg">
<path d="M12.5876 19.7858C12.2257 19.5665 11.772 19.5665 11.4102 19.7858L5.86042 23.1496C5.00023 23.6709 3.93684 22.8995 4.16541 21.92L5.63673 15.6147C5.73232 15.205 5.59372 14.7761 5.27652 14.4999L0.391516 10.2458C-0.365165 9.58683 0.0416147 8.34217 1.0414 8.25727L7.47912 7.71059C7.89834 7.67499 8.26354 7.4106 8.42826 7.02346L10.9547 1.08549C11.3469 0.163885 12.6531 0.163886 13.0453 1.08549L15.5717 7.02346C15.7365 7.4106 16.1017 7.67499 16.5209 7.71059L22.9586 8.25727C23.9584 8.34217 24.3652 9.58682 23.6085 10.2458L18.7235 14.4999C18.4063 14.7761 18.2677 15.205 18.3633 15.6147L19.8347 21.9204C20.0632 22.8999 19 23.6713 18.1398 23.1501L12.5876 19.7858Z" fill="#FFC500" fill-opacity="0.75"/>
</svg>
